<?xml version="1.0" encoding="UTF-8"?><svg xmlns="http://www.w3.org/2000/svg" xmlns:xlink="http://www.w3.org/1999/xlink" viewBox="0 0 400 39.69"><defs><style>.cls-1{fill:url(#linear-gradient-2);}.cls-2{fill:#fff;}.cls-3{filter:url(#outer-glow-3);}.cls-4{clip-path:url(#clippath-2);}.cls-5{fill:url(#Degradado_sin_nombre_15);}.cls-6{isolation:isolate;}.cls-7{opacity:0;}.cls-8{fill:#c4ff3c;}.cls-9{clip-path:url(#clippath-1);}.cls-10{opacity:.15;}.cls-11{mix-blend-mode:screen;}.cls-12{clip-path:url(#clippath);}.cls-13{fill:#c6ff3c;}.cls-14{fill:none;}.cls-15{fill:url(#linear-gradient-3);}.cls-16{fill:url(#linear-gradient);}.cls-17{fill:url(#linear-gradient-4);}</style><clipPath id="clippath"><rect class="cls-14" x="-412.65" y="-1414.47" width="1080" height="1080"/></clipPath><clipPath id="clippath-1"><rect class="cls-14" x="-528.2" y="-1414.47" width="1920" height="1080"/></clipPath><clipPath id="clippath-2"><rect class="cls-7" x="-528.2" y="-2884.57" width="1920" height="2550.1"/></clipPath><linearGradient id="linear-gradient" x1="60.59" y1="109.23" x2="60.59" y2="-1143.79" gradientTransform="matrix(1, 0, 0, 1, 0, 0)" gradientUnits="userSpaceOnUse"><stop offset=".11" stop-color="#5f9223"/><stop offset=".14" stop-color="#56841f"/><stop offset=".28" stop-color="#3c5c16"/><stop offset=".41" stop-color="#263a0e"/><stop offset=".55" stop-color="#152107"/><stop offset=".69" stop-color="#090e03"/><stop offset=".84" stop-color="#020300"/><stop offset="1" stop-color="#000"/></linearGradient><linearGradient id="linear-gradient-2" x1="278.49" y1="362.05" x2="278.49" y2="-1147.22" xlink:href="#linear-gradient"/><linearGradient id="linear-gradient-3" x1="139.94" y1="17.92" x2="139.94" y2="-826.15" xlink:href="#linear-gradient"/><linearGradient id="linear-gradient-4" x1="132.55" y1="83.36" x2="132.55" y2="-1376.13" xlink:href="#linear-gradient"/><filter id="outer-glow-3" filterUnits="userSpaceOnUse"><feOffset dx="0" dy="0"/><feGaussianBlur result="blur" stdDeviation="10"/><feFlood flood-color="#cbff31" flood-opacity=".4"/><feComposite in2="blur" operator="in"/><feComposite in="SourceGraphic"/></filter><linearGradient id="Degradado_sin_nombre_15" x1="-5918.44" y1="1070.56" x2="-5918.44" y2="1093.88" gradientTransform="translate(-1060.71 -5898.6) rotate(-90)" gradientUnits="userSpaceOnUse"><stop offset="0" stop-color="#c6ff3c"/><stop offset=".42" stop-color="#c4fd3b"/><stop offset=".58" stop-color="#bff639"/><stop offset=".68" stop-color="#b7ea36"/><stop offset=".77" stop-color="#abd932"/><stop offset=".85" stop-color="#9bc32c"/><stop offset=".91" stop-color="#88a825"/><stop offset=".97" stop-color="#71881d"/><stop offset="1" stop-color="#657719"/></linearGradient></defs><g class="cls-6"><g id="BANNER_1"><g class="cls-12"><g class="cls-9"><g class="cls-10"><g><rect class="cls-7" x="-528.2" y="-2884.57" width="1920" height="2550.1"/><g class="cls-4"><g><g class="cls-11"><path class="cls-16" d="M53.88,25.67c-1.48-2.19-2.22-5.11-2.22-8.77s.74-6.58,2.22-8.77c1.48-2.18,3.72-3.28,6.7-3.28s5.22,1.09,6.7,3.28c1.48,2.19,2.22,5.11,2.22,8.77s-.74,6.58-2.22,8.77c-1.48,2.19-3.72,3.28-6.7,3.28s-5.22-1.09-6.7-3.28Zm2.65-15.06c-.87,1.6-1.3,3.69-1.3,6.29s.43,4.69,1.3,6.29c.87,1.6,2.22,2.4,4.06,2.4s3.18-.79,4.03-2.38c.85-1.59,1.27-3.69,1.27-6.31s-.42-4.72-1.27-6.31c-.84-1.59-2.19-2.38-4.03-2.38s-3.19,.8-4.06,2.4Z"/></g><g class="cls-11"><path class="cls-1" d="M270.52,23.06c-1.76-2.6-2.64-6.07-2.64-10.42s.88-7.83,2.64-10.42c1.76-2.6,4.42-3.9,7.97-3.9s6.2,1.3,7.97,3.9c1.76,2.6,2.64,6.07,2.64,10.42s-.88,7.83-2.64,10.42c-1.76,2.6-4.42,3.9-7.97,3.9s-6.2-1.3-7.97-3.9Zm3.15-17.9c-1.03,1.9-1.55,4.39-1.55,7.48s.51,5.58,1.55,7.48c1.03,1.9,2.64,2.85,4.82,2.85s3.78-.94,4.78-2.83c1.01-1.88,1.51-4.38,1.51-7.5s-.5-5.61-1.51-7.5c-1-1.88-2.6-2.83-4.78-2.83s-3.79,.95-4.82,2.85Z"/></g><g class="cls-11"><path class="cls-15" d="M135.43,14.92c-1-1.47-1.5-3.44-1.5-5.91s.5-4.44,1.5-5.91c1-1.47,2.5-2.21,4.52-2.21s3.52,.74,4.52,2.21c1,1.47,1.5,3.44,1.5,5.91s-.5,4.44-1.5,5.91c-1,1.47-2.5,2.21-4.52,2.21s-3.52-.74-4.52-2.21Zm1.78-10.15c-.58,1.08-.88,2.49-.88,4.24s.29,3.16,.88,4.24c.58,1.08,1.49,1.61,2.73,1.61s2.14-.53,2.71-1.6c.57-1.07,.85-2.48,.85-4.25s-.28-3.18-.85-4.25c-.57-1.07-1.47-1.6-2.71-1.6s-2.15,.54-2.73,1.61Z"/></g><g class="cls-11"><path class="cls-17" d="M124.96,12.07c-1.68-2.47-2.52-5.78-2.52-9.92s.84-7.45,2.52-9.92c1.68-2.47,4.21-3.71,7.58-3.71s5.91,1.24,7.58,3.71c1.68,2.47,2.52,5.78,2.52,9.92s-.84,7.45-2.52,9.92c-1.68,2.47-4.21,3.71-7.58,3.71s-5.91-1.24-7.58-3.71Zm3-17.04c-.98,1.81-1.47,4.18-1.47,7.12s.49,5.31,1.47,7.12c.98,1.81,2.51,2.71,4.59,2.71s3.6-.9,4.55-2.69c.96-1.79,1.43-4.17,1.43-7.14s-.48-5.34-1.43-7.14c-.96-1.79-2.48-2.69-4.55-2.69s-3.61,.9-4.59,2.71Z"/></g></g></g></g></g></g></g><g><g><path class="cls-2" d="M43.68,35.59V5.84h24.2c1.02,0,1.95,.26,2.79,.77,.84,.51,1.52,1.19,2.03,2.03,.51,.84,.77,1.77,.77,2.79v8.19c0,.99-.26,1.92-.77,2.77-.51,.86-1.19,1.53-2.03,2.03-.84,.5-1.77,.74-2.79,.74l-19.24,.04v10.38h-4.96Zm5.71-15.43h18.33c.19,0,.37-.07,.52-.21,.15-.14,.23-.32,.23-.54v-7.86c0-.19-.08-.37-.23-.52-.15-.15-.32-.23-.52-.23h-18.33c-.19,0-.37,.08-.52,.23s-.23,.32-.23,.52v7.86c0,.22,.08,.4,.23,.54,.15,.14,.32,.21,.52,.21Zm18.37,15.43l-9.14-10.92h6.5l8.23,9.76v1.16h-5.59Z"/><path class="cls-2" d="M84.53,34.82c-.84-.51-1.52-1.19-2.03-2.03-.51-.84-.77-1.76-.77-2.75v-12.91c0-.99,.25-1.91,.77-2.75,.51-.84,1.19-1.52,2.03-2.03,.84-.51,1.76-.77,2.75-.77h13.28c1.02,0,1.95,.25,2.79,.74,.84,.5,1.51,1.17,2.01,2.01,.5,.84,.74,1.77,.74,2.79v8.94h-19.44v3.81c0,.22,.08,.41,.23,.56,.15,.15,.34,.23,.56,.23h18.66v4.92h-18.82c-.99,0-1.91-.25-2.75-.77Zm2.13-13.26h14.52v-4.26c0-.22-.08-.41-.23-.56-.15-.15-.34-.23-.56-.23h-12.95c-.22,0-.41,.08-.56,.23-.15,.15-.23,.34-.23,.56v4.26Z"/><path class="cls-2" d="M117.34,34.82c-.84-.51-1.51-1.19-2.01-2.03-.5-.84-.74-1.76-.74-2.75V4.1h4.92v7.49h9.6v4.92h-9.6v13.36c0,.22,.08,.41,.23,.56,.15,.15,.34,.23,.56,.23h8.81v4.92h-8.98c-1.02,0-1.95-.25-2.79-.77Z"/><path class="cls-2" d="M139.31,34.82c-.84-.51-1.52-1.19-2.03-2.03-.51-.84-.77-1.76-.77-2.75v-12.91c0-.99,.25-1.91,.77-2.75,.51-.84,1.19-1.52,2.03-2.03,.84-.51,1.76-.77,2.75-.77h13.28c1.02,0,1.95,.25,2.79,.74,.84,.5,1.51,1.17,2.01,2.01,.5,.84,.74,1.77,.74,2.79v12.91c0,.99-.25,1.91-.74,2.75-.5,.84-1.17,1.52-2.01,2.03-.84,.51-1.77,.77-2.79,.77h-13.28c-.99,0-1.91-.25-2.75-.77Zm2.92-4.16h12.95c.22,0,.41-.08,.56-.23s.23-.34,.23-.56v-12.58c0-.22-.08-.41-.23-.56-.15-.15-.34-.23-.56-.23h-12.95c-.22,0-.41,.08-.56,.23-.15,.15-.23,.34-.23,.56v12.58c0,.22,.08,.41,.23,.56,.15,.15,.34,.23,.56,.23Z"/><path class="cls-8" d="M169.49,35.59V5.8h5.67l11.17,13.32,11.13-13.32h5.71v29.79h-5.01V12.75l-11.83,14.11-11.87-14.07v22.8h-4.96Z"/><path class="cls-8" d="M212.1,11.38c0-1.02,.25-1.96,.74-2.81,.5-.85,1.17-1.53,2.03-2.03,.85-.5,1.79-.74,2.81-.74h18.62c1.02,0,1.95,.25,2.79,.74,.84,.5,1.52,1.17,2.03,2.03,.51,.86,.77,1.79,.77,2.81v24.2h-5.01v-10.22h-19.82v10.22h-4.96V11.38Zm24.78,9.02V11.55c0-.19-.08-.37-.23-.52-.15-.15-.32-.23-.52-.23h-18.33c-.19,0-.37,.08-.52,.23s-.23,.32-.23,.52v8.85h19.82Z"/><path class="cls-8" d="M256.16,35.59c-1.02,0-1.95-.25-2.79-.74-.84-.5-1.51-1.17-2.01-2.03-.5-.85-.74-1.79-.74-2.81v-1.99h4.96v1.82c0,.19,.08,.37,.23,.52,.15,.15,.32,.23,.52,.23h18.29c.22,0,.41-.08,.56-.23s.23-.32,.23-.52v-5.92c0-.22-.08-.4-.23-.54-.15-.14-.34-.21-.56-.21h-18.45c-1.02,0-1.95-.25-2.79-.74-.84-.5-1.51-1.16-2.01-2.01-.5-.84-.74-1.77-.74-2.79v-6.25c0-1.02,.25-1.96,.74-2.81,.5-.85,1.16-1.53,2.01-2.03,.84-.5,1.77-.74,2.79-.74h18.66c1.02,0,1.95,.25,2.79,.74,.84,.5,1.52,1.17,2.03,2.03,.51,.86,.77,1.79,.77,2.81v1.99h-5.01v-1.82c0-.19-.08-.37-.23-.52-.15-.15-.34-.23-.56-.23h-18.29c-.19,0-.37,.08-.52,.23s-.23,.32-.23,.52v5.92c0,.22,.08,.4,.23,.54,.15,.14,.32,.21,.52,.21h18.49c1.02,0,1.95,.25,2.79,.74,.84,.5,1.52,1.17,2.03,2.01,.51,.84,.77,1.77,.77,2.79v6.25c0,1.02-.26,1.96-.77,2.81-.51,.86-1.19,1.53-2.03,2.03-.84,.5-1.77,.74-2.79,.74h-18.66Z"/><path class="cls-8" d="M299.93,35.59V10.81h-12.41V5.8h29.79v5.01h-12.41v24.78h-4.96Z"/><path class="cls-8" d="M324.63,35.59V5.8h27.35v5.01h-22.34v7.41h18v4.96h-18v7.41h22.34v5.01h-27.35Z"/><path class="cls-8" d="M360.37,35.59V5.84h24.2c1.02,0,1.95,.26,2.79,.77,.84,.51,1.52,1.19,2.03,2.03,.51,.84,.77,1.77,.77,2.79v8.19c0,.99-.26,1.92-.77,2.77-.51,.86-1.19,1.53-2.03,2.03-.84,.5-1.77,.74-2.79,.74l-19.24,.04v10.38h-4.96Zm5.71-15.43h18.33c.19,0,.37-.07,.52-.21,.15-.14,.23-.32,.23-.54v-7.86c0-.19-.08-.37-.23-.52-.15-.15-.32-.23-.52-.23h-18.33c-.19,0-.37,.08-.52,.23s-.23,.32-.23,.52v7.86c0,.22,.08,.4,.23,.54,.15,.14,.32,.21,.52,.21Zm18.37,15.43l-9.14-10.92h6.5l8.23,9.76v1.16h-5.59Z"/></g><g><g class="cls-3"><polygon class="cls-5" points="22.2 19.85 9.84 35.55 14.74 35.55 20.8 35.55 33.16 19.85 20.8 4.14 9.84 4.14 22.2 19.85"/></g><path class="cls-13" d="M10.03,31.9V7.79c3.18,4.02,6.36,8.04,9.53,12.06-3.18,4.02-6.36,8.04-9.53,12.06Z"/></g></g></g></g></svg>