<svg xmlns="http://www.w3.org/2000/svg" xmlns:xlink="http://www.w3.org/1999/xlink" viewBox="0 0 841.89 326.94"><defs><style>.cls-1{fill:url(#linear-gradient);}.cls-2{fill:url(#linear-gradient-2);}.cls-3{fill:#768589;}.cls-4{font-size:27px;fill:#98a5a8;font-family:Roboto-Regular, Roboto;letter-spacing:0.13em;}.cls-5{letter-spacing:0.14em;}.cls-6{letter-spacing:0.14em;}</style><linearGradient id="linear-gradient" x1="207.92" y1="92.88" x2="207.92" y2="234.17" gradientUnits="userSpaceOnUse"><stop offset="0.09" stop-color="#bdbdbd"/><stop offset="0.3" stop-color="#cfcfcf"/><stop offset="0.49" stop-color="#dadada"/><stop offset="0.72" stop-color="#dadada"/><stop offset="1" stop-color="#bdbdbd"/></linearGradient><linearGradient id="linear-gradient-2" x1="-3532.35" y1="92.4" x2="-3532.35" y2="234.35" gradientTransform="matrix(-1, 0, 0, 1, -3324.43, 0)" gradientUnits="userSpaceOnUse"><stop offset="0" stop-color="#00d7fb"/><stop offset="1" stop-color="#1488d4"/></linearGradient></defs><title>851 [Convertido]</title><g id="graphics"><path class="cls-1" d="M100.08,236h23.8c6.41,0,6.22-5.63,4.7-7.88A17.77,17.77,0,0,1,126.27,213l12.28-40.64a19.84,19.84,0,0,1,19-14.13h100.8a19.84,19.84,0,0,1,19,14.13L289.57,213a17.74,17.74,0,0,1-2.32,15.17c-1.52,2.25-1.7,7.88,4.7,7.88h23.81a31.42,31.42,0,0,0,30.11-40.46L322,115.72a34.81,34.81,0,0,0-33.29-24.8S234,131.8,208,131.8s-80.87-40.88-80.87-40.88a34.8,34.8,0,0,0-33.29,24.8L70,195.56A31.42,31.42,0,0,0,100.08,236Z"/><path class="cls-2" d="M207.92,127.78c4.6,0,7.62-7.83,12.41-19.17,7.49-17.73,20.18-17.69,31.71-17.69H288.7c26.24,0,33.29,24.8,33.29,24.8-7.77-18.76-35.65-22.84-47.09,4.52-9.41,22.5-40.16,92.3-40.16,92.3-6,14.38-14.24,22.15-26.82,22.15s-20.8-7.77-26.82-22.15c0,0-30.75-69.8-40.16-92.3C129.49,92.88,101.62,97,93.85,115.72c0,0,7.05-24.8,33.29-24.8h36.65c11.54,0,24.23,0,31.72,17.69C200.3,120,203.32,127.78,207.92,127.78Z"/><path class="cls-3" d="M407.9,118.67a2.7,2.7,0,0,1,.82,2v36.75a2.68,2.68,0,0,1-.84,2,2.76,2.76,0,0,1-2,.81,2.73,2.73,0,0,1-2-.81,2.7,2.7,0,0,1-.82-2v-27l-13.14,26.77a2.8,2.8,0,0,1-2.44,1.41,2.71,2.71,0,0,1-2.6-1.69l-13-26v26.49a2.73,2.73,0,0,1-.81,2,2.76,2.76,0,0,1-2,.81,2.78,2.78,0,0,1-2.83-2.82V120.68a2.82,2.82,0,0,1,5.32-1.31l16.13,32.31,15.69-32.31a2.83,2.83,0,0,1,4.5-.7Z"/><path class="cls-3" d="M421.45,124.67a3.57,3.57,0,1,1,6.11-2.53,3.57,3.57,0,0,1-6.11,2.53Zm.54,34.8a2.71,2.71,0,0,1-.78-2V133.33a2.67,2.67,0,0,1,.78-2,2.74,2.74,0,0,1,2-.76,2.61,2.61,0,0,1,2.77,2.77v24.16a2.74,2.74,0,0,1-.76,2,2.66,2.66,0,0,1-2,.78A2.71,2.71,0,0,1,422,159.47Z"/><path class="cls-3" d="M442.54,159.33a13.31,13.31,0,0,1-5.1-3,2.32,2.32,0,0,1-.71-1.69,2.5,2.5,0,0,1,1.09-2.11,3.25,3.25,0,0,1,1.9-.76,2.9,2.9,0,0,1,2.06,1,8.38,8.38,0,0,0,3.1,2,11.33,11.33,0,0,0,4.39.85,9.31,9.31,0,0,0,4.81-1,3.11,3.11,0,0,0,1.71-2.76,3.26,3.26,0,0,0-1.69-2.8,16.42,16.42,0,0,0-5.7-1.87q-10.41-2-10.42-8.58a6.72,6.72,0,0,1,1.57-4.51,9.64,9.64,0,0,1,4.13-2.77,16,16,0,0,1,5.43-.92,16.6,16.6,0,0,1,6.32,1.14,10.81,10.81,0,0,1,4.43,3.15,2.77,2.77,0,0,1,.71,1.74,2.18,2.18,0,0,1-.93,1.68,2.51,2.51,0,0,1-1.52.43,3.7,3.7,0,0,1-2.55-1,8,8,0,0,0-2.88-1.76,11.63,11.63,0,0,0-3.69-.52,8.82,8.82,0,0,0-4.1.84,2.6,2.6,0,0,0-1.6,2.37,3,3,0,0,0,.54,1.81,4.8,4.8,0,0,0,2.07,1.36,25.18,25.18,0,0,0,4.39,1.22c3.95.8,6.74,1.9,8.39,3.32a6.87,6.87,0,0,1,2.47,5.48,8,8,0,0,1-1.36,4.53,9,9,0,0,1-4,3.21,15.64,15.64,0,0,1-6.32,1.16A20.89,20.89,0,0,1,442.54,159.33Z"/><path class="cls-3" d="M470.58,124.67a3.54,3.54,0,0,1,0-5,3.57,3.57,0,1,1,2.53,6.11A3.48,3.48,0,0,1,470.58,124.67Zm.54,34.8a2.71,2.71,0,0,1-.78-2V133.33a2.67,2.67,0,0,1,.78-2,2.75,2.75,0,0,1,2-.76,2.68,2.68,0,0,1,2,.76,2.71,2.71,0,0,1,.77,2v24.16a2.75,2.75,0,0,1-.77,2,2.65,2.65,0,0,1-2,.78A2.72,2.72,0,0,1,471.12,159.47Z"/><path class="cls-3" d="M493.52,158.54a13.53,13.53,0,0,1-5.32-5.34,16.92,16.92,0,0,1,0-15.58,13.55,13.55,0,0,1,5.32-5.35,15.49,15.49,0,0,1,7.76-1.93,15.21,15.21,0,0,1,7.68,1.93,13.82,13.82,0,0,1,5.32,5.35,16.8,16.8,0,0,1,0,15.58,13.65,13.65,0,0,1-5.29,5.34,15.33,15.33,0,0,1-7.74,1.93A15.49,15.49,0,0,1,493.52,158.54Zm12.73-4.26a9.08,9.08,0,0,0,3.42-3.61,11,11,0,0,0,1.22-5.24,11.21,11.21,0,0,0-1.22-5.26,9,9,0,0,0-3.42-3.64,10.15,10.15,0,0,0-9.94,0,9.15,9.15,0,0,0-3.44,3.64,10.87,10.87,0,0,0-1.25,5.26,10.71,10.71,0,0,0,1.25,5.24,9.2,9.2,0,0,0,3.44,3.61,10.08,10.08,0,0,0,9.94,0Zm-6.76-29.18a2.71,2.71,0,0,1-.76-2,2.62,2.62,0,0,1,.65-1.84L504.7,116a2.8,2.8,0,0,1,3.94,0,2.83,2.83,0,0,1,.79,2,2.46,2.46,0,0,1-.77,1.9l-5.26,5.27a2.57,2.57,0,0,1-1.9.76A2.66,2.66,0,0,1,499.49,125.1Z"/><path class="cls-3" d="M547.59,131.92a11.38,11.38,0,0,1,4.67,4.75,15.64,15.64,0,0,1,1.68,7.52v13.35a2.7,2.7,0,0,1-2.77,2.77,2.7,2.7,0,0,1-2.77-2.77V144.19c0-2.94-.78-5.15-2.36-6.66a8.7,8.7,0,0,0-6.27-2.25,9.33,9.33,0,0,0-4.15.92,7.35,7.35,0,0,0-2.93,2.5,6.16,6.16,0,0,0-1.06,3.53v15.31a2.75,2.75,0,0,1-.76,2,2.79,2.79,0,0,1-4.78-2V133.33a2.64,2.64,0,0,1,.79-2,3,3,0,0,1,4,0,2.74,2.74,0,0,1,.76,2v.59a12.14,12.14,0,0,1,4.12-2.68,13.61,13.61,0,0,1,5.11-1A13.76,13.76,0,0,1,547.59,131.92Z"/><path class="cls-3" d="M583.64,159.44a2.7,2.7,0,0,1-.82-2V120.68a2.7,2.7,0,0,1,.82-2,2.79,2.79,0,0,1,2-.79h9.82a21.74,21.74,0,0,1,10.92,2.72,19.19,19.19,0,0,1,7.43,7.52,23.87,23.87,0,0,1,0,21.9,19.07,19.07,0,0,1-7.43,7.55,21.73,21.73,0,0,1-10.92,2.71h-9.82A2.73,2.73,0,0,1,583.64,159.44Zm11.83-4.18a15.86,15.86,0,0,0,8.07-2.06,14.39,14.39,0,0,0,5.53-5.78,17.59,17.59,0,0,0,2-8.39,17.41,17.41,0,0,0-2-8.36,14.4,14.4,0,0,0-5.53-5.76,15.86,15.86,0,0,0-8.07-2.06h-7v32.41Z"/><path class="cls-3" d="M627.2,124.67a3.59,3.59,0,0,1,2.53-6.11,3.62,3.62,0,0,1,3.58,3.58,3.62,3.62,0,0,1-3.58,3.59A3.48,3.48,0,0,1,627.2,124.67Zm.55,34.8a2.68,2.68,0,0,1-.79-2V133.33a2.64,2.64,0,0,1,.79-2,3,3,0,0,1,4,0,2.74,2.74,0,0,1,.76,2v24.16a2.78,2.78,0,0,1-.76,2,2.94,2.94,0,0,1-4,0Z"/><path class="cls-3" d="M665.59,132.27a13.88,13.88,0,0,1,5.32,5.35,15.67,15.67,0,0,1,1.93,7.81v11.73a16.33,16.33,0,0,1-1.9,7.82,14.09,14.09,0,0,1-5.35,5.56,15,15,0,0,1-7.79,2,17.26,17.26,0,0,1-7.28-1.55,15.17,15.17,0,0,1-5.64-4.42,2.47,2.47,0,0,1-.6-1.52,2.38,2.38,0,0,1,1.14-2,2.84,2.84,0,0,1,1.52-.49,2.67,2.67,0,0,1,2.22,1.14,9.53,9.53,0,0,0,3.7,2.91,12.11,12.11,0,0,0,5,1,9.37,9.37,0,0,0,4.83-1.27,9.22,9.22,0,0,0,3.47-3.75,12.46,12.46,0,0,0,1.31-5.89v-2.66a12.6,12.6,0,0,1-4.46,4.67,11.76,11.76,0,0,1-6.24,1.68,13.51,13.51,0,0,1-7.19-1.93,13.07,13.07,0,0,1-4.94-5.34,16.66,16.66,0,0,1-1.77-7.77,15.77,15.77,0,0,1,1.9-7.81,13.62,13.62,0,0,1,5.32-5.35,15.5,15.5,0,0,1,7.77-1.93A15.24,15.24,0,0,1,665.59,132.27Zm-2.72,22a9,9,0,0,0,3.42-3.61,10.93,10.93,0,0,0,1.23-5.24,11.09,11.09,0,0,0-1.23-5.26,8.9,8.9,0,0,0-3.42-3.64,10.13,10.13,0,0,0-9.93,0,9.1,9.1,0,0,0-3.45,3.64,11,11,0,0,0-1.25,5.26,10.82,10.82,0,0,0,1.25,5.24,9.15,9.15,0,0,0,3.45,3.61,10.06,10.06,0,0,0,9.93,0Z"/><path class="cls-3" d="M683.5,124.67a3.54,3.54,0,0,1,0-5,3.57,3.57,0,1,1,2.53,6.11A3.48,3.48,0,0,1,683.5,124.67Zm.54,34.8a2.71,2.71,0,0,1-.78-2V133.33a2.67,2.67,0,0,1,.78-2,2.75,2.75,0,0,1,2-.76,2.6,2.6,0,0,1,2.76,2.77v24.16a2.77,2.77,0,0,1-.75,2,2.69,2.69,0,0,1-2,.78A2.72,2.72,0,0,1,684,159.47Z"/><path class="cls-3" d="M715,155.59a2.76,2.76,0,0,1,.68,1.95,2.47,2.47,0,0,1-.89,2,3.49,3.49,0,0,1-2.31.75h-1a9,9,0,0,1-4.86-1.38,9.64,9.64,0,0,1-3.44-3.77,11.35,11.35,0,0,1-1.25-5.38V136.31h-2.5a2.6,2.6,0,0,1-1.85-.65,2.12,2.12,0,0,1-.7-1.63,2.23,2.23,0,0,1,.7-1.73,2.6,2.6,0,0,1,1.85-.66H702v-7.81a2.6,2.6,0,0,1,2.71-2.72,2.6,2.6,0,0,1,2.72,2.72v7.81H712a2.6,2.6,0,0,1,1.85.66,2.23,2.23,0,0,1,.7,1.73,2.12,2.12,0,0,1-.7,1.63,2.6,2.6,0,0,1-1.85.65h-4.61v13.41a5.56,5.56,0,0,0,1.19,3.64,3.65,3.65,0,0,0,2.93,1.47h1.85A2.11,2.11,0,0,1,715,155.59Z"/><path class="cls-3" d="M745.17,132.32a14.53,14.53,0,0,1,5.38,5.43,15.15,15.15,0,0,1,2,7.68v12.11a2.77,2.77,0,1,1-5.54,0v-2a13.2,13.2,0,0,1-4.61,3.64,13.86,13.86,0,0,1-13-.65,13.72,13.72,0,0,1-5-5.4,16.25,16.25,0,0,1-1.81-7.69,15.33,15.33,0,0,1,2-7.68,14.22,14.22,0,0,1,5.4-5.43,15,15,0,0,1,7.63-2A14.72,14.72,0,0,1,745.17,132.32Zm-2.66,21.94a9.37,9.37,0,0,0,3.45-3.64,10.77,10.77,0,0,0,1.25-5.19,10.93,10.93,0,0,0-1.25-5.21,9.57,9.57,0,0,0-13.27-3.66,9.5,9.5,0,0,0-3.48,3.66,10.72,10.72,0,0,0-1.27,5.21,10.56,10.56,0,0,0,1.27,5.19,9.59,9.59,0,0,0,3.48,3.64,9.73,9.73,0,0,0,9.82,0Z"/><path class="cls-3" d="M765.26,159a8.28,8.28,0,0,1-2.9-3.58,12.56,12.56,0,0,1-1-5.19V120.57a2.77,2.77,0,0,1,4.67-2,2.64,2.64,0,0,1,.76,2v29.64a6.56,6.56,0,0,0,.76,3.31,2.25,2.25,0,0,0,2,1.31h1.36a2.24,2.24,0,0,1,1.76.76,2.81,2.81,0,0,1,.68,1.95,2.36,2.36,0,0,1-1,2,4.43,4.43,0,0,1-2.66.75h-.11A7.3,7.3,0,0,1,765.26,159Z"/><text class="cls-4" transform="translate(500.3 204.48)">A<tspan class="cls-5" x="21.14" y="0">GENC</tspan><tspan class="cls-6" x="106.39" y="0">I</tspan><tspan class="cls-5" x="117.64" y="0">A</tspan></text></g></svg>